<svg width="17" height="12" viewBox="0 0 17 12">
<path d="M7.65192 10.0011C7.91749 10.0011 8.15651 10.2088 8.15651 10.4943C8.15651 10.7539 7.94405 10.9876 7.65192 10.9876C7.38635 10.9876 7.14734 10.7799 7.14734 10.4943C7.14734 10.2088 7.38635 10.0011 7.65192 10.0011ZM15.4597 6.98971C15.1941 6.98971 14.9551 6.78203 14.9551 6.49647C14.9551 6.23687 15.1676 6.00323 15.4597 6.00323C15.7253 6.00323 15.9643 6.21091 15.9643 6.49647C15.9643 6.75607 15.7253 6.98971 15.4597 6.98971ZM15.4597 4.99078C14.6099 4.99078 13.9194 5.66574 13.9194 6.49647C13.9194 6.65223 13.9459 6.80799 13.9991 6.96375L8.92666 9.61167C8.63453 9.19631 8.15651 8.96267 7.65192 8.96267C7.06767 8.96267 6.53653 9.30015 6.27096 9.79339L1.70315 7.45699C1.22512 7.19739 0.85332 6.44455 0.906435 5.71766C0.932992 5.35422 1.06578 5.06866 1.25168 4.96482C1.38446 4.88694 1.51725 4.9129 1.70315 4.99078L1.7297 5.01674C2.95133 5.63978 6.90833 7.66467 7.06767 7.74255C7.33324 7.84639 7.46602 7.89831 7.91749 7.69063L16.0971 3.53702C16.2298 3.4851 16.3626 3.38126 16.3626 3.19954C16.3626 2.9659 16.1236 2.86206 16.1236 2.86206C15.6456 2.65438 14.9286 2.3169 14.2381 2.00538C12.7509 1.33041 11.0512 0.551611 10.3076 0.16221C9.67026 -0.175271 9.13912 0.11029 9.05945 0.16221L8.87355 0.24009C5.5008 1.90153 1.03922 4.05622 0.773649 4.21198C0.32218 4.47158 0.0300522 5.01674 0.00349514 5.6917C-0.0496189 6.75607 0.508079 7.87235 1.30479 8.26175L6.13817 10.702C6.2444 11.4289 6.90833 12 7.65192 12C8.50175 12 9.16567 11.351 9.19223 10.5203L14.5036 7.71659C14.7692 7.92427 15.1145 8.02811 15.4597 8.02811C16.3095 8.02811 17 7.35315 17 6.52243C17 5.66574 16.3095 4.99078 15.4597 4.99078Z"/>
</svg>
