<svg t="1629974884389" class="icon" viewBox="0 0 1024 1024" version="1.1"
	xmlns="http://www.w3.org/2000/svg" p-id="4510" width="200" height="200">
	<path
		d="M974.848 168.106667l-227.669333 27.392a9.159111 9.159111 0 0 0-5.376 15.559111l67.783111 67.783111-258.275556 258.275555-116.337778-116.224a18.261333 18.261333 0 0 0-25.856 0L41.472 788.679111a9.187556 9.187556 0 0 0 0 12.885333l51.427556 51.655112c3.527111 3.555556 9.386667 3.555556 12.913777 0l316.216889-316.103112 116.252445 116.224c7.196444 7.111111 18.716444 7.111111 25.799111 0l310.186666-309.930666 67.783112 67.754666a9.159111 9.159111 0 0 0 15.530666-5.376l27.420445-227.640888a8.988444 8.988444 0 0 0-10.154667-10.069334z"
		p-id="4511"></path>
</svg>