<svg width="19" height="13" viewBox="0 0 19 13" fill="none" xmlns="http://www.w3.org/2000/svg">
<path d="M7.53237 1.52101L0.72136 10.7266C0.602579 10.887 0.528111 11.0805 0.506529 11.2847C0.484947 11.4889 0.517129 11.6956 0.599369 11.8809C0.68161 12.0662 0.810564 12.2226 0.971387 12.3322C1.13221 12.4417 1.31836 12.4999 1.50841 12.5L17.4916 12.5C17.6816 12.4999 17.8678 12.4417 18.0286 12.3322C18.1894 12.2226 18.3184 12.0662 18.4006 11.8809C18.4829 11.6956 18.5151 11.4889 18.4935 11.2847C18.4719 11.0805 18.3974 10.887 18.2786 10.7266L11.4676 1.52101C11.2313 1.20236 10.9317 0.945178 10.5912 0.768461C10.2506 0.591744 9.87772 0.5 9.5 0.5C9.12228 0.5 8.74938 0.591744 8.40882 0.768461C8.06826 0.945178 7.76875 1.20236 7.53237 1.52101V1.52101Z" fill="#D0D0D0"/>
</svg>
