<svg width="30" height="33" viewBox="0 0 30 33" fill="none" xmlns="http://www.w3.org/2000/svg">
<path d="M14.4804 2.97814C14.8038 2.97802 15.1213 3.06433 15.4001 3.22813L25.7718 9.32232C26.0448 9.48241 26.2711 9.71104 26.4285 9.98557C26.5858 10.2601 26.6687 10.571 26.6688 10.8874V22.3075C26.6688 22.624 26.586 22.935 26.4286 23.2096C26.2713 23.4842 26.0448 23.7129 25.7718 23.873L15.7238 29.7741C15.4495 29.9351 15.1378 30.0213 14.8198 30.0239C14.5018 30.0266 14.1887 29.9457 13.9118 29.7893L3.53383 23.924C3.25933 23.769 3.02995 23.5451 2.86828 23.2744C2.70662 23.0037 2.61824 22.6956 2.61186 22.3804L2.37786 10.9085C2.37144 10.5868 2.45061 10.2693 2.60727 9.98832C2.76392 9.70735 2.99244 9.47307 3.26941 9.30945L13.5569 3.23047C13.8366 3.06517 14.1556 2.97803 14.4804 2.97814ZM14.4804 0.599121C13.7298 0.599855 12.9931 0.801873 12.3471 1.18413L2.0604 7.26116C1.42078 7.63981 0.893103 8.18143 0.531257 8.83071C0.169412 9.47999 -0.0136404 10.2137 0.000791957 10.9568L0.234794 22.4288C0.25139 23.1566 0.456354 23.8677 0.829694 24.4927C1.20303 25.1177 1.732 25.6353 2.36499 25.995L12.743 31.8583C13.3827 32.2196 14.1061 32.4066 14.8408 32.4005C15.5755 32.3944 16.2957 32.1955 16.9293 31.8236L26.9758 25.9236C27.605 25.5523 28.1267 25.0236 28.4897 24.3895C28.8527 23.7554 29.0443 23.0377 29.0459 22.3071V10.8874C29.0442 10.1569 28.8526 9.43946 28.4899 8.80542C28.1272 8.17138 27.6058 7.64257 26.9769 7.27091L16.6052 1.1775C15.961 0.799177 15.2275 0.599648 14.4804 0.599511V0.599121Z" fill="black"/>
<path d="M14.516 16.0461L4.79483 10.4574L14.516 5.10498L24.0001 10.4574L14.516 16.0461ZM14.3842 28.1706L4.24414 22.2425V11.0931L14.3842 16.9431V28.1706ZM16.2438 19.3846V26.0692L21.6765 22.7261L16.2438 19.3846Z" fill="black"/>
</svg>
